<?xml version="1.0" encoding="utf-8"?>
<svg xmlns="http://www.w3.org/2000/svg" viewBox="0 0 500 500">
  <path d="M 249.848 4.291 L 342.533 96.976 L 325.096 144.559 L 325.096 328.026 L 357.345 328.026 L 357.345 111.788 L 496.892 251.335 L 249.848 498.379 L 130.769 379.3 L 148.069 326.473 L 150.759 255.995 C 150.759 254.202 150.804 251.736 150.894 248.597 C 150.984 245.459 151.118 241.872 151.297 237.837 C 151.477 233.802 151.611 229.498 151.701 224.925 C 151.791 220.352 151.835 215.735 151.835 211.072 C 153.449 215.735 155.153 220.352 156.946 224.925 C 158.74 229.498 160.443 233.847 162.057 237.972 C 163.671 242.097 165.151 245.863 166.495 249.27 C 167.841 252.677 168.962 255.367 169.858 257.34 L 200.255 326.473 L 222.851 326.473 L 252.979 256.533 C 253.697 254.74 254.683 252.229 255.938 249.001 C 257.194 245.773 258.539 242.186 259.973 238.241 C 261.408 234.296 262.977 230.081 264.68 225.598 C 266.384 221.115 268.043 216.631 269.657 212.148 C 269.837 220.756 270.061 229.229 270.329 237.568 C 270.599 245.907 270.823 252.319 271.002 256.802 L 273.961 326.473 L 303.82 326.473 L 293.06 143.822 L 268.581 143.822 L 222.313 257.878 C 220.52 262.182 218.637 266.71 216.664 271.462 C 214.692 276.215 212.809 280.922 211.015 285.585 C 209.222 280.922 207.294 276.17 205.231 271.328 C 203.169 266.486 201.331 262.003 199.717 257.878 L 153.718 143.822 L 128.701 143.822 L 119.901 368.432 L 2.804 251.335 Z" style="fill: rgb(85, 133, 200);"/>
  <text style="fill: rgb(1, 19, 72); font-family: Arial, sans-serif; font-size: 35px; letter-spacing: 16px; white-space: pre;" x="25.784" y="402.02">MI INVENTARIO</text>
</svg>